<svg xmlns="http://www.w3.org/2000/svg" viewBox="0 0 2415.22142 605.36292">
  <g>
    <g>
      <path d="M691.88613,227.52849c-126.25622,0-228.8172,101.55847-230.6289,227.52783h61.62866c1.80554-91.90039,76.773-165.845,169.00024-165.845a168.74133,168.74133,0,0,1,137.37726,70.62457L876.698,320.28435A230.20675,230.20675,0,0,0,691.88613,227.52849Z" transform="translate(0.00063 -0.00058)" style="fill: #0d7aa6"/>
      <path d="M593.00588,129.97777c-180.38757,0-326.92071,145.10083-329.50915,325.07855h88.05139c2.57971-131.30194,109.68872-236.94977,241.45776-236.94977,98.54548,0,183.29132,59.09308,220.844,143.81134l76.50647-44.36468C837.27072,206.60875,724.087,129.97777,593.00588,129.97777Z" transform="translate(0.00063 -0.00058)" style="fill: #119cd5"/>
      <path d="M799.25777,455.05635c-3.61116-183.80079-153.54591-331.69016-338.00054-331.69016S126.86784,271.25556,123.25669,455.05635H-.00063C3.62277,203.11752,208.74473.00058,461.25723.00058S918.89155,203.11752,922.515,455.05635Z" transform="translate(0.00063 -0.00058)" style="fill: #59c6f2"/>
      <path d="M760.17893,303.60113a167.77542,167.77542,0,0,0-53.07435-13.70435,321.88708,321.88708,0,0,0-49.013-59.87579c2.335-.3433,4.67714-.6648,7.03438-.93744q-5.69595-1.7822-11.51347-3.27968a318.91238,318.91238,0,0,0-161.575-80.02657,327.07168,327.07168,0,0,1,52.02395-12.17641A338.8299,338.8299,0,0,1,760.17893,303.60113Z" transform="translate(0.00063 -0.00058)" style="fill: #0d7aa6"/>
    </g>
    <g>
      <path d="M984.31942,34.19847h37.87793V160.45531c15.63184-7.21387,37.877-12.02442,63.72949-12.02442,78.16016,0,134.67481,42.08594,134.67481,147.90235v16.834c0,104.61328-55.91406,147.90234-134.67481,147.90234-33.06738,0-72.14746-6.01269-101.60742-24.0498Zm197.80371,262.13477c0-85.97559-39.68066-111.82813-98-111.82813-32.46582,0-52.30664,8.417-61.92578,13.22656V411.76878c13.82813,6.61328,34.26953,13.22657,63.12891,13.22657,58.91992,0,96.79687-26.45411,96.79687-111.82813Z" transform="translate(0.00063 -0.00058)" style="fill: #3d3d3d"/>
      <path d="M1282.5245,172.4807c18.03711-10.82227,51.70606-24.04981,93.19043-24.04981,22.84668,0,43.28809,4.209,59.52148,12.626L1419.003,194.72581c-11.42286-6.61328-25.252-10.2207-43.28809-10.2207-24.65039,0-43.88965,7.81543-55.31348,12.625V455.05687h-37.877Z" transform="translate(0.00063 -0.00058)" style="fill: #3d3d3d"/>
      <path d="M1492.34774,31.7932c14.42969,0,25.252,10.82226,25.252,25.85254a25.02058,25.02058,0,0,1-25.252,25.25195c-14.42968,0-25.85254-11.42383-25.85254-25.25195C1466.4952,42.61546,1477.91806,31.7932,1492.34774,31.7932Zm-19.23926,122.65039h37.877V455.05687h-37.877Z" transform="translate(0.00063 -0.00058)" style="fill: #3d3d3d"/>
      <path d="M1812.79794,437.01976c-30.06055,18.03711-69.14063,24.0498-102.208,24.0498-78.76074,0-134.07324-43.28906-134.07324-147.90234v-16.834c0-105.81641,56.51465-147.90235,134.07324-147.90235,26.4541,0,48.69922,4.81055,63.72949,12.02442V34.19847h38.47852ZM1614.9952,313.16722c0,85.374,37.877,111.82813,96.79688,111.82813,28.85937,0,48.69922-6.61329,62.52734-13.22657V197.73167c-9.61914-4.80957-28.8584-13.22656-61.92578-13.22656-58.31933,0-97.39844,25.85254-97.39844,111.82813Z" transform="translate(0.00063 -0.00058)" style="fill: #3d3d3d"/>
      <path d="M2114.00985,473.094c0,86.57617-51.10351,132.26953-119.64355,132.26953-42.08594,0-77.5586-10.2207-107.01856-29.46q7.21436-16.2334,14.42969-32.4668c24.04883,16.2334,55.3125,25.85352,92.58887,25.85352,48.09765,0,81.165-29.46,81.165-96.19629V449.64574c-19.23926,7.8164-40.88282,11.42382-65.53321,11.42382-76.35547,0-132.26953-43.28906-132.26953-148.5039V296.33324c0-105.81641,55.91406-147.90235,128.66211-147.90235,42.08594,0,79.96289,8.417,107.61914,24.04981ZM1916.20712,312.56566c0,85.97558,39.0791,112.42969,97.39844,112.42969,24.04882,0,46.29394-5.41114,61.92578-13.82813V197.73167a151.77805,151.77805,0,0,0-42.08594-12.02441c-9.01758-.60156-18.6377-1.20215-30.06055-1.20215-52.9082,1.80371-87.17773,30.06152-87.17773,111.82813Z" transform="translate(0.00063 -0.00058)" style="fill: #3d3d3d"/>
      <path d="M2415.22079,320.38206H2218.01864v2.40528c0,71.5459,36.67481,101.60742,91.98828,101.60742,36.67481,0,67.33692-12.626,87.17774-27.05566l14.42871,33.06738c-28.25684,19.23926-63.12793,30.06152-101.60645,30.06152-78.76074,0-131.06738-43.28808-131.06738-146.09863V295.13011c0-104.01172,47.49609-146.69922,117.83984-146.69922s118.44141,42.6875,118.44141,146.69922Zm-197.20215-31.26367h158.12305V285.511c0-73.34961-32.4668-101.00586-79.36231-101.00586-46.29394,0-78.76074,27.65625-78.76074,101.00586Z" transform="translate(0.00063 -0.00058)" style="fill: #3d3d3d"/>
    </g>
  </g>
</svg>
