<svg width="284" height="48" viewBox="0 0 284 48" fill="none" xmlns="http://www.w3.org/2000/svg">
<path fill-rule="evenodd" clip-rule="evenodd" d="M84.7314 0.950562H79.5986V35.0963C81.9326 35.9226 84.8364 36.5939 88.1558 36.5939C96.6597 36.5939 101.586 31.6348 101.586 24.2485C101.586 16.9125 96.6074 12.6772 89.9688 12.6772C87.9473 12.6772 85.8203 13.2457 84.7314 13.8141V0.950562ZM48.1055 3.01697C46.395 3.01697 44.8896 4.41174 44.8896 6.1676C44.8896 7.97607 46.395 9.42346 48.1055 9.42346C49.8174 9.42346 51.3213 7.97607 51.3213 6.1676C51.3213 4.41174 49.8174 3.01697 48.1055 3.01697ZM16.3359 31.4327C15.2163 31.87 14.0366 32.1005 12.7583 32.1005C8.29785 32.1005 5.18506 29.2074 5.18506 24.6616C5.18506 19.8575 8.40088 17.2228 12.5498 17.2228C13.7695 17.2228 14.9531 17.4316 16.1035 17.8905C16.6606 16.5322 17.394 15.2985 18.2832 14.2111C16.3765 13.1959 14.4844 12.677 12.0845 12.677C5.34131 12.677 0 17.2734 0 24.6616C0 31.9977 5.08203 36.594 12.0845 36.594C14.4395 36.594 16.5991 36.1013 18.6606 34.9967C17.7256 33.9498 16.9424 32.7552 16.3359 31.4327ZM30.4209 12.677C37.3179 12.677 42.2969 17.5332 42.2969 24.6616C42.2969 31.7394 37.3179 36.594 30.4209 36.594C23.5762 36.594 18.5977 31.7394 18.5977 24.6616C18.5977 17.5332 23.5762 12.677 30.4209 12.677ZM23.7798 24.6616C23.7798 20.0131 26.5806 17.0677 30.418 17.0677C34.3604 17.0677 37.1089 20.0131 37.1089 24.6616C37.1089 29.26 34.3604 32.2034 30.418 32.2034C26.5806 32.2034 23.7798 29.26 23.7798 24.6616ZM45.5649 36.0779H50.6978V13.1932H45.5649V36.0779ZM55.1768 14.6405C58.3926 13.4009 62.335 12.677 65.7046 12.677C71.5654 12.677 75.2998 14.8984 75.2998 21.3556V36.0778H70.2178V21.8212C70.2178 18.515 68.1436 17.3256 65.29 17.3256C63.4746 17.3256 61.6611 17.5839 60.3115 17.9973V36.0778H55.1768V14.6405ZM84.7334 31.7396C85.7192 32.0482 87.0166 32.2032 88.3115 32.2032C93.0312 32.2032 96.4028 29.621 96.4028 24.3514C96.4028 19.9081 93.2397 17.2737 89.3496 17.2737C87.3276 17.2737 85.7715 17.7915 84.7334 18.3599V31.7396ZM112.012 17.1202C114.552 17.1202 116.42 18.2551 116.42 20.7349V22.6478H113.878C107.24 22.6478 103.247 24.9199 103.247 29.5685C103.247 34.7352 107.604 36.5433 113.568 36.5433C116.161 36.5433 119.272 36.1807 121.45 35.6123V20.4766C121.45 14.7434 117.871 12.677 112.842 12.677C109.988 12.677 107.396 13.4009 105.374 14.5358V18.979C107.292 17.8944 109.367 17.1202 112.012 17.1202ZM116.419 26.0568H114.242C110.662 26.0568 108.328 27.0887 108.328 29.4135C108.328 31.79 110.507 32.7196 113.619 32.7196C114.397 32.7196 115.486 32.6167 116.419 32.4613V26.0568ZM132.182 32.4615C129.849 32.4615 127.309 31.4799 125.182 29.879V34.7352C126.894 35.8721 129.59 36.594 132.288 36.594C137.266 36.594 140.948 34.4248 140.948 29.6211C140.948 25.4883 138.667 23.5248 133.427 22.3879C130.782 21.666 129.798 20.8899 129.798 19.3923C129.798 17.8944 130.99 16.8098 133.221 16.8098C135.657 16.8098 137.628 17.6887 139.65 19.134V14.4332C137.732 13.2457 135.657 12.6774 133.064 12.6774C128.397 12.6774 124.87 14.9491 124.87 19.5996C124.87 23.5774 126.894 25.4883 131.665 26.5729C134.621 27.347 135.969 28.0183 135.969 29.879C135.969 31.6871 134.465 32.4615 132.182 32.4615ZM147.971 25.7987V25.9015C148.283 29.9817 151.808 32.2031 155.386 32.2031C158.549 32.2031 160.832 31.4797 163.113 29.9817V34.4772C161.039 35.9226 157.979 36.5939 155.024 36.5939C147.868 36.5939 142.992 32.0481 142.992 24.8169C142.992 17.5334 147.762 12.6772 154.091 12.6772C160.78 12.6772 163.943 16.9651 163.943 23.2145V25.7987H147.971ZM153.938 16.9651C157.257 16.9651 159.02 18.9266 159.123 22.4926H148.13C148.804 19.0315 150.981 16.9651 153.938 16.9651Z" fill="#1452F5"/>
<path fill-rule="evenodd" clip-rule="evenodd" d="M182.262 0.834956C182.262 0.373822 182.636 0 183.097 0C183.558 0 183.932 0.373822 183.932 0.834956V47.165C183.932 47.6262 183.558 48 183.097 48C182.636 48 182.262 47.6262 182.262 47.165V0.834956Z" fill="#AAB4C0"/>
<path d="M214.002 13.2527L208.862 33.9246L203.49 13.2527H201.016L207.239 36.1188H210.408L215.354 15.9859L220.301 36.1188H223.47L229.692 13.2527H227.335L221.924 33.9246L216.823 13.2527H214.002Z" fill="#202A36"/>
<path d="M239.462 26.418H237.568C232.428 26.418 229.375 28.1503 229.375 31.4609C229.375 35.0024 232.428 36.4267 236.988 36.4267C238.418 36.4267 240.234 36.2343 241.78 35.8108V24.2238C241.78 20.4513 239.577 18.95 236.177 18.95C234.206 18.95 232.389 19.4889 230.959 20.2588V22.453C232.505 21.6446 233.974 21.1057 235.906 21.1057C238.07 21.1057 239.462 22.2221 239.462 24.3778V26.418ZM239.462 34.271C238.65 34.425 237.8 34.502 237.104 34.502C234.012 34.502 231.694 33.6936 231.694 31.4609C231.694 29.2282 234.244 28.3043 237.722 28.3043H239.462V34.271Z" fill="#202A36"/>
<path d="M247.753 9.94214H245.434V36.1188H247.753V9.94214Z" fill="#202A36"/>
<path d="M254.006 9.94214H251.687V36.1188H254.006V9.94214Z" fill="#202A36"/>
<path d="M271.737 27.8423V26.264C271.737 21.4907 268.915 18.95 264.664 18.95C260.143 18.95 256.665 22.684 256.665 27.7269C256.665 33.1931 260.375 36.5037 265.244 36.5037C267.331 36.5037 269.495 36.0033 271.002 34.8869V32.5772C269.302 33.8476 267.64 34.4635 265.244 34.4635C261.959 34.4635 258.983 32.0383 258.983 27.9193V27.8423H271.737ZM259.138 25.9176C259.795 22.761 261.92 20.9902 264.548 20.9902C267.37 20.9902 269.263 22.4145 269.418 25.9176H259.138Z" fill="#202A36"/>
<path d="M272.177 21.2982H274.766V31.7688C274.766 35.2334 276.583 36.5037 279.018 36.5037C280.486 36.5037 281.646 36.1573 282.65 35.6568V33.6166C281.491 34.194 280.602 34.5405 279.52 34.5405C277.935 34.5405 277.085 33.6936 277.085 31.5379V21.2982H281.839V19.3349H277.085V15.2545H274.766V19.3349H272.177V21.2982Z" fill="#202A36"/>
</svg>
