<svg width="1638" height="352" viewBox="0 0 1638 352" fill="none" xmlns="http://www.w3.org/2000/svg">
<path fill-rule="evenodd" clip-rule="evenodd" d="M435.175 102H413.659V245.697C423.442 249.174 435.616 251.999 449.529 251.999C485.177 251.999 505.827 231.129 505.827 200.046C505.827 169.173 484.957 151.35 457.13 151.35C448.655 151.35 439.739 153.742 435.175 156.134V102ZM281.642 110.696C274.473 110.696 268.162 116.566 268.162 123.955C268.162 131.566 274.473 137.657 281.642 137.657C288.819 137.657 295.123 131.566 295.123 123.955C295.123 116.566 288.819 110.696 281.642 110.696ZM148.477 230.28C143.785 232.12 138.839 233.09 133.481 233.09C114.783 233.09 101.735 220.914 101.735 201.784C101.735 181.567 115.216 170.479 132.608 170.479C137.719 170.479 142.681 171.358 147.504 173.289C149.84 167.573 152.914 162.381 156.641 157.805C148.648 153.533 140.716 151.349 130.656 151.349C102.389 151.349 80 170.692 80 201.784C80 232.657 101.302 252 130.656 252C140.527 252 149.582 249.927 158.222 245.278C154.303 240.872 151.021 235.845 148.477 230.28ZM207.512 151.349C236.424 151.349 257.295 171.786 257.295 201.784C257.295 231.57 236.424 252 207.512 252C178.82 252 157.951 231.57 157.951 201.784C157.951 171.786 178.82 151.349 207.512 151.349ZM179.686 201.784C179.686 182.221 191.427 169.827 207.512 169.827C224.038 169.827 235.559 182.221 235.559 201.784C235.559 221.136 224.038 233.522 207.512 233.522C191.427 233.522 179.686 221.136 179.686 201.784ZM270.994 249.827H292.509V153.521H270.994V249.827ZM311.285 159.612C324.765 154.396 341.291 151.349 355.416 151.349C379.984 151.349 395.637 160.698 395.637 187.871V249.828H374.334V189.831C374.334 175.917 365.638 170.912 353.678 170.912C346.067 170.912 338.467 171.999 332.808 173.739V249.828H311.285V159.612ZM435.175 231.571C439.306 232.869 444.745 233.521 450.173 233.521C469.957 233.521 484.092 222.655 484.092 200.479C484.092 181.78 470.831 170.693 454.526 170.693C446.05 170.693 439.526 172.872 435.175 175.264V231.571ZM549.517 170.048C560.164 170.048 567.995 174.823 567.995 185.259V193.309H557.339C529.513 193.309 512.775 202.871 512.775 222.434C512.775 244.177 531.04 251.786 556.041 251.786C566.909 251.786 579.949 250.26 589.078 247.868V184.172C589.078 160.045 574.077 151.349 552.996 151.349C541.034 151.349 530.166 154.395 521.691 159.171V177.87C529.733 173.305 538.429 170.048 549.517 170.048ZM567.995 207.655H558.866C543.859 207.655 534.078 211.998 534.078 221.781C534.078 231.782 543.213 235.694 556.254 235.694C559.52 235.694 564.084 235.261 567.995 234.607V207.655ZM634.074 234.609C624.293 234.609 613.646 230.477 604.73 223.74V244.177C611.906 248.961 623.207 251.999 634.515 251.999C655.385 251.999 670.818 242.87 670.818 222.655C670.818 205.263 661.256 197 639.293 192.215C628.205 189.177 624.081 185.911 624.081 179.609C624.081 173.305 629.078 168.74 638.427 168.74C648.641 168.74 656.905 172.439 665.379 178.522V158.74C657.337 153.742 648.641 151.35 637.773 151.35C618.21 151.35 603.423 160.91 603.423 180.481C603.423 197.221 611.906 205.263 631.903 209.827C644.297 213.085 649.948 215.91 649.948 223.74C649.948 231.349 643.644 234.609 634.074 234.609ZM700.273 206.569V207.002C701.58 224.173 716.359 233.521 731.357 233.521C744.618 233.521 754.186 230.477 763.748 224.173V243.091C755.052 249.174 742.225 251.999 729.839 251.999C699.84 251.999 679.404 232.869 679.404 202.438C679.404 171.786 699.399 151.35 725.927 151.35C753.966 151.35 767.227 169.394 767.227 195.694V206.569H700.273ZM725.274 169.394C739.188 169.394 746.577 177.649 747.01 192.656H700.926C703.752 178.09 712.88 169.394 725.274 169.394Z" fill="#1652F0"/>
<path fill-rule="evenodd" clip-rule="evenodd" d="M844 101.5C844 99.567 845.567 98 847.5 98C849.433 98 851 99.567 851 101.5V296.5C851 298.433 849.433 300 847.5 300C845.567 300 844 298.433 844 296.5V101.5Z" fill="#AAB4C0"/>
<path fill-rule="evenodd" clip-rule="evenodd" d="M1004.3 159.29C996.526 154.592 987.454 152 977.734 152C950.032 152 928 172.088 928 201.734C928 231.218 948.574 251.468 977.734 251.468C987.454 251.468 997.174 248.876 1004.79 244.34V232.838C997.822 239.318 987.778 242.396 977.572 242.396C955.864 242.396 938.206 226.52 938.206 201.734C938.206 176.948 955.864 161.072 977.572 161.072C987.778 161.072 997.336 164.312 1004.3 170.954V159.29ZM1011.89 214.532C1011.89 192.662 1026.31 177.596 1047.37 177.596C1068.43 177.596 1082.85 192.662 1082.85 214.532C1082.85 236.402 1068.43 251.468 1047.37 251.468C1026.31 251.468 1011.89 236.402 1011.89 214.532ZM1072.96 214.532C1072.96 197.36 1062.27 186.02 1047.37 186.02C1032.46 186.02 1021.77 197.36 1021.77 214.532C1021.77 231.704 1032.46 243.044 1047.37 243.044C1062.27 243.044 1072.96 231.704 1072.96 214.532ZM1183.91 249.848H1193.63V202.22C1193.63 184.562 1184.39 177.596 1167.38 177.596C1158.8 177.596 1149.72 179.864 1141.3 183.104C1136.93 179.378 1130.61 177.596 1122.35 177.596C1112.95 177.596 1103.23 180.026 1094 183.752V249.848H1103.72V189.584C1108.09 187.964 1114.41 186.344 1122.35 186.344C1130.45 186.344 1139.03 189.422 1139.03 202.544V249.848H1148.75V202.058C1148.75 197.36 1147.94 193.472 1146.65 190.394C1150.86 188.45 1158.96 186.344 1167.38 186.344C1175 186.344 1183.91 189.422 1183.91 202.544V249.848ZM1299.22 249.848H1308.94V202.22C1308.94 184.562 1299.71 177.596 1282.7 177.596C1274.11 177.596 1265.04 179.864 1256.62 183.104C1252.24 179.378 1245.93 177.596 1237.66 177.596C1228.27 177.596 1218.55 180.026 1209.31 183.752V249.848H1219.03V189.584C1223.41 187.964 1229.73 186.344 1237.66 186.344C1245.76 186.344 1254.35 189.422 1254.35 202.544V249.848H1264.07V202.058C1264.07 197.36 1263.26 193.472 1261.96 190.394C1266.18 188.45 1274.28 186.344 1282.7 186.344C1290.31 186.344 1299.22 189.422 1299.22 202.544V249.848ZM1382.47 215.018H1329.01V215.342C1329.01 232.676 1341.48 242.882 1355.25 242.882C1365.29 242.882 1372.26 240.29 1379.39 234.944V244.664C1373.07 249.362 1364 251.468 1355.25 251.468C1334.84 251.468 1319.29 237.536 1319.29 214.532C1319.29 193.31 1333.87 177.596 1352.82 177.596C1370.64 177.596 1382.47 188.288 1382.47 208.376V215.018ZM1329.65 206.918H1372.74C1372.1 192.176 1364.16 186.182 1352.33 186.182C1341.32 186.182 1332.41 193.634 1329.65 206.918ZM1403.01 190.88V249.848H1393.29V185.696C1400.74 180.998 1409.82 178.082 1419.54 178.082C1423.42 178.082 1427.31 178.568 1431.36 179.54V189.098C1427.15 187.64 1422.13 187.316 1418.89 187.316C1411.92 187.316 1406.74 188.774 1403.01 190.88ZM1488.04 182.942V193.148C1482.04 188.936 1474.91 186.506 1468.27 186.506C1453.69 186.506 1441.06 196.226 1441.06 214.694C1441.06 232.514 1453.53 242.558 1468.92 242.558C1476.37 242.558 1482.69 240.128 1489.17 235.916V246.122C1482.2 249.686 1475.4 251.468 1467.95 251.468C1448.18 251.468 1431.17 237.698 1431.17 214.532C1431.17 190.88 1448.67 177.596 1467.79 177.596C1475.56 177.596 1481.72 179.378 1488.04 182.942ZM1557.83 215.018H1504.37V215.342C1504.37 232.676 1516.84 242.882 1530.61 242.882C1540.66 242.882 1547.62 240.29 1554.75 234.944V244.664C1548.43 249.362 1539.36 251.468 1530.61 251.468C1510.2 251.468 1494.65 237.536 1494.65 214.532C1494.65 193.31 1509.23 177.596 1528.18 177.596C1546 177.596 1557.83 188.288 1557.83 208.376V215.018ZM1505.02 206.918H1548.11C1547.46 192.176 1539.52 186.182 1527.7 186.182C1516.68 186.182 1507.77 193.634 1505.02 206.918Z" fill="#202A36"/>
</svg>
